<?xml version="1.0" encoding="UTF-8" standalone="no"?>
<!-- Created with Inkscape (http://www.inkscape.org/) -->

<svg
   width="37.041668mm"
   height="37.041668mm"
   viewBox="0 0 37.041668 37.041668"
   version="1.1"
   id="svg5"
   xml:space="preserve"
   inkscape:export-filename="apple-touch-icon.png"
   inkscape:export-xdpi="96"
   inkscape:export-ydpi="96"
   xmlns:inkscape="http://www.inkscape.org/namespaces/inkscape"
   xmlns:sodipodi="http://sodipodi.sourceforge.net/DTD/sodipodi-0.dtd"
   xmlns="http://www.w3.org/2000/svg"
   xmlns:svg="http://www.w3.org/2000/svg"><sodipodi:namedview
     id="namedview7"
     pagecolor="#ffffff"
     bordercolor="#666666"
     borderopacity="1.0"
     inkscape:showpageshadow="2"
     inkscape:pageopacity="0.0"
     inkscape:pagecheckerboard="0"
     inkscape:deskcolor="#d1d1d1"
     inkscape:document-units="mm"
     showgrid="false" /><defs
     id="defs2" /><g
     inkscape:label="Layer 1"
     inkscape:groupmode="layer"
     id="layer1"
     transform="matrix(0.97723203,0,0,0.88582678,-8.4771021,6.6571402)"><g
       style="opacity:1"
       id="g2933"
       transform="matrix(0.08167208,0,0,0.08167173,6.7188077,-7.5151714)"><g
         id="g2923">
	<path
   class="st0"
   d="m 487.753,174.494 -0.267,-1.408 -0.574,-1.319 c -0.777,-1.812 -1.95,-4.919 -3.44,-8.634 -4.078,-10.066 -10.575,-24.865 -22.616,-38.329 0.017,-0.688 0.041,-1.36 0.041,-2.08 C 460.905,88.877 447.149,58.112 424.963,35.942 402.792,13.755 372.021,-0.008 338.173,0 c -33.847,-0.008 -64.611,13.755 -86.782,35.942 -22.179,22.171 -35.951,52.935 -35.943,86.782 -0.008,11.198 1.319,20.908 3.148,29.898 1.837,8.998 4.102,17.259 6.158,26.176 0.744,3.26 1.675,6.084 2.59,8.529 -24.259,-2.363 -46.276,-3.528 -66.084,-3.528 -21.434,0 -40.295,1.343 -56.738,4.03 -12.332,2.015 -23.312,4.782 -33.005,8.382 -14.492,5.406 -26.298,12.72 -34.729,22.6 -4.192,4.928 -7.469,10.486 -9.629,16.458 -2.169,5.972 -3.22,12.315 -3.212,18.756 0.008,11.069 2.977,22.348 8.221,33.846 5.251,11.506 12.816,23.312 22.567,35.603 6.821,8.585 11.781,14.929 15.997,21.167 4.232,6.255 7.848,12.502 12.154,21.459 13.464,28.029 32.342,52.466 56.592,70.016 14.8,10.738 31.646,18.789 50.168,23.417 L 164.61,512 h 75.769 v -23.012 h -39.284 l 12.178,-25.521 c 4.491,0.38 9.046,0.599 13.683,0.591 24.703,0.008 48.153,-5.478 69.215,-15.237 l 31.751,49.893 62.022,-21.88 -7.654,-21.702 -44.77,15.795 -21.16,-33.232 c 9.84,-6.36 18.983,-13.707 27.204,-21.936 29.834,-29.802 48.314,-71.117 48.314,-116.608 h -0.007 c 0.056,-1.156 0.097,-2.313 0.097,-3.495 -0.024,-8.229 -1.068,-17.559 -2.056,-26.978 -0.987,-9.369 -1.918,-18.756 -1.909,-25.828 -0.016,-3.706 0.299,-6.684 0.656,-8.31 17.477,-7.905 32.69,-19.752 44.616,-34.397 11.758,-0.372 22.001,-1.246 30.279,-2.768 2.452,-0.461 4.75,-0.97 6.935,-1.593 3.293,-0.971 6.286,-2.015 9.563,-4.151 1.635,-1.109 3.399,-2.533 5.041,-4.839 0.81,-1.149 1.57,-2.54 2.104,-4.126 0.55,-1.587 0.865,-3.367 0.858,-5.122 -0.002,-1.068 -0.115,-2.095 -0.302,-3.05 z"
   style="fill:#ff9900"
   id="path2921" />
</g></g></g><style
     type="text/css"
     id="style1049">
	.st0{fill:#4B4B4B;}
</style><style
     type="text/css"
     id="style2919">
	.st0{fill:#4B4B4B;}
</style></svg>
