<?xml version="1.0" encoding="UTF-8" standalone="no"?>
<!-- Created with Inkscape (http://www.inkscape.org/) -->

<svg
   width="234.96855mm"
   height="57.306122mm"
   viewBox="0 0 234.96855 57.306122"
   version="1.1"
   id="svg5"
   xml:space="preserve"
   inkscape:export-filename="Mathlog-logo.svg"
   inkscape:export-xdpi="96"
   inkscape:export-ydpi="96"
   xmlns:inkscape="http://www.inkscape.org/namespaces/inkscape"
   xmlns:sodipodi="http://sodipodi.sourceforge.net/DTD/sodipodi-0.dtd"
   xmlns="http://www.w3.org/2000/svg"
   xmlns:svg="http://www.w3.org/2000/svg"><sodipodi:namedview
     id="namedview7"
     pagecolor="#ffffff"
     bordercolor="#666666"
     borderopacity="1.0"
     inkscape:showpageshadow="2"
     inkscape:pageopacity="0.0"
     inkscape:pagecheckerboard="0"
     inkscape:deskcolor="#d1d1d1"
     inkscape:document-units="mm"
     showgrid="false" /><defs
     id="defs2" /><g
     inkscape:label="Layer 1"
     inkscape:groupmode="layer"
     id="layer1"
     transform="matrix(0.97723203,0,0,0.88582678,-98.426176,-59.939802)"><g
       style="fill:none"
       id="g3416"
       transform="matrix(0.27074771,0,0,0.29868518,100.67332,67.557857)"
       inkscape:export-filename="Mathlog-logoW.svg"
       inkscape:export-xdpi="96"
       inkscape:export-ydpi="96"><path
         d="m 177.51,173.29 c -7.55,10.13 -16.81,18.89 -27.37,25.83 -17.08,11.28 -37.53,17.83 -59.54,17.83 -24.66,0 -47.36,-8.24 -65.56,-22.1 C 15.33,187.48 6.91,178.49 0.169998,168.3 10.91,160.93 19.54,150.8 25.04,138.89 c 4.27,-9.2 6.65,-19.46 6.65,-30.25 0,-10.79 -2.38,-21.05 -6.65,-30.25 C 19.54,66.51 10.91,56.38 0.169998,49.01 6.91,38.82 15.33,29.82 25.04,22.46 43.23,8.59998 65.94,0.359985 90.6,0.359985 c 22.01,0 42.46,6.560005 59.54,17.830015 10.56,6.95 19.82,15.7 27.37,25.83 -11.01,5.5 -20.42,13.74 -27.34,23.82 -6.95,-10.07 -16.36,-18.31 -27.37,-23.82 -9.68,-4.84 -20.63,-7.58 -32.21,-7.58 -15.1,0 -29.14,4.66 -40.72,12.57 11.31,17.08 17.89,37.59 17.89,59.63 0,22.04 -6.59,42.58 -17.89,59.66 11.58,7.91 25.62,12.57 40.72,12.57 11.58,0 22.52,-2.74 32.21,-7.58 11.01,-5.5 20.42,-13.74 27.37,-23.82 6.92,10.07 16.33,18.31 27.34,23.82 z"
         fill="url(#paint0_linear_2_23)"
         id="path3378"
         style="fill:#ffffff" /><path
         d="m 457.6,170 c -0.26,-2.35 -0.46,-4.88 -0.57,-7.55 -0.13,-2.57 -0.2,-5.51 -0.2,-8.71 v -46.35 c 0,-4.22 -0.81,-8.34 -2.35,-12.21 -1.59,-3.94 -4.07,-7.45 -7.36,-10.47 -3.29,-3 -7.49,-5.4 -12.54,-7.16 -5.01,-1.72 -11.02,-2.61 -17.87,-2.61 -6.85,0 -13.28,1.18 -19.88,3.48 -6.62,2.31 -12.56,5.86 -17.61,10.52 l -1.63,1.5 c 1.89,1.31 3.98,2.96 6.11,5.02 3.16,3.06 5.47,6.12 7.12,8.7 0.51,-0.38 1.02,-0.77 1.52,-1.15 1.55,-1.15 3.16,-2.37 4.81,-3.66 1.52,-1.18 3.27,-2.22 5.16,-3.11 1.92,-0.89 4.07,-1.65 6.42,-2.24 2.29,-0.59 5.05,-0.89 8.16,-0.89 3.4,0 6.36,0.5 8.77,1.46 2.37,0.98 4.38,2.29 5.94,3.92 1.59,1.63 2.79,3.48 3.57,5.49 0.78,2.05 1.2,4.11 1.2,6.12 v 1.65 H 425.9 c -6.99,0 -13.65,0.57 -19.83,1.65 -6.27,1.13 -11.84,3 -16.57,5.6 -4.83,2.66 -8.69,6.16 -11.49,10.38 -2.85,4.31 -4.29,9.67 -4.29,15.96 0,4.79 0.91,9.08 2.7,12.74 1.81,3.66 4.29,6.79 7.4,9.27 3.09,2.46 6.73,4.33 10.8,5.55 4.01,1.22 8.29,1.83 12.69,1.83 7.18,0 13.61,-1.31 19.11,-3.85 4.07,-1.87 7.75,-4.72 11.02,-8.53 0.09,2.72 0.24,5.42 0.46,8.1 l 0.17,1.98 c 3.11,-0.5 6.83,-0.85 11.03,-0.78 3.24,0.06 6.17,0.37 8.71,0.78 l -0.24,-2.39 z m -44.89,-13.45 c -5.55,0 -9.95,-1.04 -13.08,-3.09 -2.9,-1.89 -4.29,-4.99 -4.29,-9.47 0,-3.03 0.89,-5.42 2.74,-7.31 1.98,-2.02 4.62,-3.66 7.79,-4.83 3.33,-1.2 7.1,-2.02 11.17,-2.46 4.22,-0.44 8.36,-0.65 12.32,-0.65 h 7.03 v 3.57 c 0,2.83 -0.44,5.77 -1.26,8.69 -0.81,2.83 -2.16,5.44 -4.01,7.77 -1.83,2.29 -4.29,4.18 -7.29,5.62 -3.03,1.46 -6.75,2.18 -11.12,2.18 z"
         fill="#ffffff"
         id="path3380"
         style="fill:#ffffff"
         inkscape:export-filename="Mathlog-logoW.svg"
         inkscape:export-xdpi="96"
         inkscape:export-ydpi="96" /><path
         d="m 329.84,70.14 -29.33,78.31 c -2.35,-0.41 -6.85,-0.73 -10.06,-0.75 -3.42,-0.02 -7.29,0.32 -9.76,0.75 -5.44,-17.95 -29.72,-78.31 -29.72,-78.31 -0.53,16.52 -4.94,102.38 -4.94,102.38 -2.3,-0.5 -5,-0.92 -8.04,-1.07 -5.15,-0.26 -9.57,0.34 -12.92,1.07 2.73,-42.06 5.46,-84.12 8.19,-126.18 4.66,0.72 10.23,1.23 16.5,1.12 4.84,-0.09 9.22,-0.53 13.05,-1.12 5.35,16.89 27.81,77.99 27.81,77.99 l 29.46,-77.99 c 3.56,0.57 7.61,1 12.05,1.12 6.54,0.18 12.32,-0.36 17.12,-1.12 2.36,42.06 4.71,84.12 7.07,126.18 -3.22,-0.52 -7.07,-0.9 -11.42,-0.87 -3.96,0.03 -7.49,0.39 -10.49,0.87 -0.8,-17.16 -4.56,-102.38 -4.56,-102.38 z"
         fill="#ffffff"
         id="path3382"
         style="fill:#ffffff" /><path
         d="m 530.64,171.81 -0.33,0.11 c -0.96,0.28 -8.8,2.5 -18,2.5 -1.24,0 -2.53,-0.04 -3.81,-0.13 -8.29,-0.61 -14.41,-3.16 -18.13,-7.62 -4.44,-5.18 -6.6,-13.61 -6.6,-25.78 V 98.35 h -14 L 469.81,98 c 0.5,-4.11 0.65,-8.27 0.41,-12.39 -0.06,-1.55 -0.22,-3.13 -0.41,-4.72 l -0.04,-0.33 h 0.35 c 6.18,0 13.65,-5.12 13.65,-11.47 V 58.84 l 0.28,-0.02 c 5.09,-0.39 10.14,-1.28 15.02,-2.66 1.76,-0.48 3.57,-1.07 5.33,-1.7 l 0.41,-0.13 v 26.23 h 24.25 l -0.07,0.35 c -0.24,1.26 -0.41,2.55 -0.54,3.81 -0.44,4.38 -0.26,8.84 0.54,13.26 l 0.07,0.37 h -24.25 v 39.9 c 0,6.75 1.15,10.86 3.74,13.39 2.29,2.24 5.9,3.24 10.95,3.13 3.44,-0.11 6.14,-0.44 8.03,-1 l 0.44,-0.13 -0.04,0.46 c -0.13,1.42 -0.17,2.85 -0.15,4.29 0.11,4.44 1.02,8.84 2.72,13.11 l 0.13,0.31 z"
         fill="#ffffff"
         id="path3384"
         style="fill:#ffffff" /><path
         d="m 729.09,175.55 c -26.04,0 -47.23,-21.19 -47.23,-47.23 0,-26.04 21.19,-47.23 47.23,-47.23 26.04,0 47.23,21.19 47.23,47.23 0,26.04 -21.19,47.23 -47.23,47.23 z m 0,-73.78 c -14.64,0 -26.55,11.91 -26.55,26.55 0,14.64 11.91,26.55 26.55,26.55 14.64,0 26.55,-11.91 26.55,-26.55 0,-14.64 -11.91,-26.55 -26.55,-26.55 z"
         fill="#ffffff"
         id="path3386"
         style="fill:#ffffff" /><path
         d="m 643.92,172.68 c 2.74,-0.67 6.4,-1.28 10.73,-1.25 3.98,0.04 7.36,0.61 9.95,1.25 V 39.74 c -2.35,0.34 -4.92,0.59 -7.69,0.69 -4.89,0.18 -9.26,-0.16 -12.99,-0.69 z"
         fill="#ffffff"
         id="path3388"
         style="fill:#ffffff" /><path
         d="m 624.02,117.38 v 55.3 c -2.59,-0.63 -5.96,-1.22 -9.95,-1.24 -4.33,-0.04 -7.99,0.57 -10.73,1.24 v -55.3 c 0,-9.51 -7.75,-17.26 -17.26,-17.26 -9.51,0 -17.24,7.75 -17.24,17.26 v 55.3 c -2.59,-0.63 -5.96,-1.22 -9.95,-1.24 -4.33,-0.04 -7.99,0.57 -10.73,1.24 V 39.73 c 3.72,0.54 8.1,0.87 13,0.7 2.76,-0.11 5.36,-0.35 7.68,-0.7 V 83.6 c 5.16,-2.66 11.04,-4.16 17.24,-4.16 6.2,0 12.08,1.5 17.26,4.18 12.28,6.27 20.68,19.05 20.68,33.77 z"
         fill="#ffffff"
         id="path3390"
         style="fill:#ffffff" /><path
         d="m 888.2,76.45 c -2,0.7 -3.94,1.59 -5.99,2.11 -4.81,1.2 -9.8,1.48 -14.69,2.24 v 10.52 c -8.05,-6.4 -18.24,-10.23 -29.3,-10.23 -26.06,0 -47.24,21.18 -47.24,47.24 0,26.06 21.18,47.22 47.24,47.22 11.06,0 21.25,-3.83 29.3,-10.23 v 1.98 c 0,21.94 -18.05,28.74 -35.16,28.74 -13.74,0 -24.51,-4.09 -30.39,-7.34 -0.15,1.92 -0.44,4.03 -0.94,6.29 -1.15,5.03 -3.03,9.08 -4.75,12.04 8.95,4.92 24.36,7.9 37.6,7.9 14.35,0 27.45,-2.33 38.36,-11.1 13.69,-11.02 15.91,-27.54 15.96,-37.49 0.09,-21.38 0,-89.89 0,-89.89 z m -49.98,78.42 c -14.65,0 -26.56,-11.91 -26.56,-26.54 0,-14.63 11.91,-26.56 26.56,-26.56 14.65,0 26.54,11.91 26.54,26.56 0,14.65 -11.91,26.54 -26.54,26.54 z"
         fill="#ffffff"
         id="path3392"
         style="fill:#ffffff" /></g></g><style
     type="text/css"
     id="style1049">
	.st0{fill:#4B4B4B;}
</style><style
     type="text/css"
     id="style2919">
	.st0{fill:#4B4B4B;}
</style></svg>
