<?xml version="1.0" encoding="UTF-8" standalone="no"?>
<!-- Created with Inkscape (http://www.inkscape.org/) -->

<svg
   version="1.1"
   id="svg2"
   width="426.93332"
   height="128.65334"
   viewBox="0 0 426.93332 128.65334"
   sodipodi:docname="Amazon-logo-RGB.eps"
   xmlns:inkscape="http://www.inkscape.org/namespaces/inkscape"
   xmlns:sodipodi="http://sodipodi.sourceforge.net/DTD/sodipodi-0.dtd"
   xmlns="http://www.w3.org/2000/svg"
   xmlns:svg="http://www.w3.org/2000/svg">
  <defs
     id="defs6" />
  <sodipodi:namedview
     id="namedview4"
     pagecolor="#ffffff"
     bordercolor="#666666"
     borderopacity="1.0"
     inkscape:showpageshadow="2"
     inkscape:pageopacity="0.0"
     inkscape:pagecheckerboard="0"
     inkscape:deskcolor="#d1d1d1"
     showgrid="false" />
  <g
     id="g10"
     inkscape:groupmode="layer"
     inkscape:label="Page 1"
     transform="matrix(1.3333333,0,0,-1.3333333,0,128.65333)">
    <g
       id="g12"
       transform="scale(0.1)">
      <path
         d="M 1986.45,210.301 C 1800.41,73.0078 1530.7,-0.00390625 1298.44,-0.00390625 972.938,-0.00390625 679.813,120.32 458.004,320.605 c -17.418,15.731 -1.887,37.208 19.051,25.028 239.316,-139.258 535.265,-223.125 840.935,-223.125 206.19,0 432.85,42.793 641.42,131.262 31.45,13.339 57.82,-20.723 27.04,-43.469"
         style="fill:#f68d11;fill-opacity:1;fill-rule:evenodd;stroke:none"
         id="path14" />
      <path
         d="m 2063.87,298.691 c -23.8,30.457 -157.29,14.43 -217.27,7.247 -18.16,-2.18 -20.98,13.699 -4.61,25.195 106.51,74.793 280.99,53.203 301.27,28.152 20.43,-25.254 -5.37,-200.207 -105.15,-283.6912 -15.37,-12.8321 -29.97,-5.9844 -23.16,10.9687 22.46,56.0825 72.74,181.6365 48.92,212.1285"
         style="fill:#f68d11;fill-opacity:1;fill-rule:evenodd;stroke:none"
         id="path16" />
      <path
         d="m 1850.83,859.523 v 72.688 c 0.07,11.062 8.38,18.426 18.43,18.394 l 325.75,0.032 c 10.41,0 18.78,-7.578 18.78,-18.332 v -62.336 c -0.1,-10.465 -8.91,-24.098 -24.52,-45.758 l -168.75,-240.91 c 62.63,1.465 128.89,-7.934 185.8,-39.914 12.84,-7.207 16.28,-17.879 17.28,-28.36 v -77.558 c 0,-10.672 -11.7,-23.047 -23.99,-16.602 -100.25,52.52 -233.31,58.25 -344.18,-0.652 -11.33,-6.027 -23.18,6.16 -23.18,16.863 v 73.711 c 0,11.809 0.23,31.973 12.13,49.949 l 195.49,280.465 -170.21,0.02 c -10.41,0 -18.76,7.414 -18.83,18.3"
         style="fill:#232b39;fill-opacity:1;fill-rule:evenodd;stroke:none"
         id="path18" />
      <path
         d="m 662.594,405.586 h -99.102 c -9.429,0.613 -16.961,7.691 -17.73,16.758 l 0.082,508.617 c 0,10.184 8.547,18.305 19.121,18.305 l 92.289,0.035 c 9.66,-0.492 17.402,-7.797 18.008,-17.09 v -66.402 h 1.867 c 24.047,64.218 69.379,94.195 130.426,94.195 61.972,0 100.832,-29.977 128.582,-94.195 24.062,64.218 78.643,94.195 136.923,94.195 41.63,0 86.95,-17.125 114.7,-55.66 31.45,-42.821 25,-104.883 25,-159.477 l -0.1,-320.98 c 0,-10.149 -8.54,-18.301 -19.12,-18.301 h -98.98 c -9.95,0.633 -17.77,8.504 -17.77,18.262 l -0.03,269.652 c 0,21.375 1.85,74.906 -2.79,95.238 -7.39,34.262 -29.6,43.907 -58.26,43.907 -24.062,0 -49.042,-16.055 -59.226,-41.743 -10.168,-25.703 -9.25,-68.492 -9.25,-97.402 V 423.887 c 0,-10.149 -8.543,-18.301 -19.101,-18.301 h -98.988 c -9.957,0.633 -17.797,8.504 -17.797,18.262 L 811.25,693.5 c 0,56.723 9.246,140.191 -61.047,140.191 -71.238,0 -68.457,-81.324 -68.457,-140.191 l -0.031,-269.613 c 0,-10.149 -8.563,-18.301 -19.121,-18.301"
         style="fill:#232b39;fill-opacity:1;fill-rule:evenodd;stroke:none"
         id="path20" />
      <path
         d="m 2495.12,856.172 c -73.08,0 -77.69,-99.52 -77.69,-161.609 0,-62.075 -0.92,-194.79 76.79,-194.79 76.8,0 80.48,107.032 80.48,172.293 0,42.809 -1.86,94.196 -14.82,134.875 -11.1,35.329 -33.31,49.231 -64.76,49.231 z m -0.9,103.832 c 147.09,0 226.63,-126.313 226.63,-286.852 0,-155.175 -87.86,-278.293 -226.63,-278.293 -144.32,0 -222.96,126.332 -222.96,283.645 0,158.414 79.56,281.5 222.96,281.5"
         style="fill:#232b39;fill-opacity:1;fill-rule:evenodd;stroke:none"
         id="path22" />
      <path
         d="m 2911.61,405.586 h -98.75 c -9.92,0.633 -17.77,8.504 -17.77,18.262 l -0.17,508.816 c 0.84,9.316 9.05,16.602 19.04,16.602 l 91.92,0.035 c 8.66,-0.465 15.8,-6.352 17.62,-14.242 V 857.25 h 1.86 c 27.76,69.59 66.59,102.754 135.05,102.754 44.4,0 87.89,-16.047 115.64,-59.945 25.9,-40.664 25.9,-109.157 25.9,-158.403 V 421.59 c -1.1,-9.004 -9.2,-16.004 -18.99,-16.004 h -99.34 c -9.18,0.586 -16.58,7.332 -17.64,16.004 v 276.164 c 0,55.656 6.48,137.019 -61.98,137.019 -24.06,0 -46.26,-16.058 -57.36,-40.664 -13.88,-31.054 -15.74,-62.074 -15.74,-96.355 V 423.887 c -0.17,-10.149 -8.73,-18.301 -19.29,-18.301"
         style="fill:#232b39;fill-opacity:1;fill-rule:evenodd;stroke:none"
         id="path24" />
      <path
         d="m 1691.06,406.855 c -6.55,-5.89 -16.01,-6.281 -23.41,-2.304 -32.9,27.351 -38.8,39.988 -56.81,66.035 -54.39,-55.41 -92.91,-72.043 -163.38,-72.043 -83.43,0 -148.33,51.504 -148.33,154.465 0,80.453 43.57,135.152 105.68,161.965 53.76,23.609 128.87,27.894 186.36,34.347 v 12.868 c 0,23.605 1.85,51.472 -12.06,71.863 -12.07,18.238 -35.23,25.754 -55.63,25.754 -37.8,0 -71.39,-19.367 -79.66,-59.508 -1.72,-8.938 -8.23,-17.777 -17.2,-18.238 l -96.06,10.41 c -8.12,1.836 -17.12,8.336 -14.8,20.726 22.1,116.524 127.33,151.727 221.62,151.727 48.23,0 111.24,-12.859 149.26,-49.348 48.22,-45.043 43.57,-105.129 43.57,-170.578 V 590.633 c 0,-46.465 19.3,-66.824 37.41,-91.836 6.33,-9.043 7.74,-19.746 -0.33,-26.348 -20.23,-16.972 -56.2,-48.203 -75.99,-65.82 z m -99.89,241.625 c 0,-38.632 0.91,-70.789 -18.56,-105.132 -15.75,-27.871 -40.8,-45.047 -68.6,-45.047 -38,0 -60.25,28.972 -60.25,71.883 0,84.406 75.71,99.742 147.41,99.742 V 648.48"
         style="fill:#232b39;fill-opacity:1;fill-rule:evenodd;stroke:none"
         id="path26" />
      <path
         d="m 391.934,406.855 c -6.547,-5.89 -16.028,-6.281 -23.411,-2.304 -32.937,27.351 -38.832,39.988 -56.804,66.035 C 257.305,415.176 218.785,398.543 148.328,398.543 64.8906,398.543 0,450.047 0,553.008 c 0,80.453 43.5586,135.152 105.684,161.965 53.757,23.609 128.867,27.894 186.328,34.347 v 12.868 c 0,23.605 1.863,51.472 -12.035,71.863 -12.067,18.238 -35.247,25.754 -55.625,25.754 -37.801,0 -71.422,-19.367 -79.657,-59.508 -1.718,-8.938 -8.234,-17.777 -17.218,-18.238 l -96.0473,10.41 c -8.1211,1.836 -17.1367,8.336 -14.8008,20.726 22.0703,116.524 127.2971,151.727 221.6211,151.727 48.211,0 111.25,-12.859 149.266,-49.348 48.191,-45.043 43.574,-105.129 43.574,-170.578 V 590.633 c 0,-46.465 19.281,-66.824 37.387,-91.836 6.316,-9.043 7.761,-19.746 -0.309,-26.348 -20.25,-16.972 -56.23,-48.203 -76.004,-65.82 z M 292.012,648.48 c 0,-38.632 0.933,-70.789 -18.535,-105.132 -15.747,-27.871 -40.793,-45.047 -68.606,-45.047 -37.996,0 -60.258,28.972 -60.258,71.883 0,84.406 75.727,99.742 147.399,99.742 V 648.48"
         style="fill:#232b39;fill-opacity:1;fill-rule:evenodd;stroke:none"
         id="path28" />
    </g>
  </g>
</svg>
