<?xml version="1.0" encoding="UTF-8" standalone="no"?>
<!-- Created with Inkscape (http://www.inkscape.org/) -->

<svg
   version="1.1"
   id="svg2"
   width="226.57333"
   height="51.026669"
   viewBox="0 0 226.57333 51.026669"
   sodipodi:docname="Amazon-Smile-RGB-REV.eps"
   xmlns:inkscape="http://www.inkscape.org/namespaces/inkscape"
   xmlns:sodipodi="http://sodipodi.sourceforge.net/DTD/sodipodi-0.dtd"
   xmlns="http://www.w3.org/2000/svg"
   xmlns:svg="http://www.w3.org/2000/svg">
  <defs
     id="defs6" />
  <sodipodi:namedview
     id="namedview4"
     pagecolor="#ffffff"
     bordercolor="#666666"
     borderopacity="1.0"
     inkscape:showpageshadow="2"
     inkscape:pageopacity="0.0"
     inkscape:pagecheckerboard="0"
     inkscape:deskcolor="#d1d1d1"
     showgrid="false" />
  <g
     id="g10"
     inkscape:groupmode="layer"
     inkscape:label="Page 1"
     transform="matrix(1.3333333,0,0,-1.3333333,0,51.026667)">
    <g
       id="g12"
       transform="scale(0.1)">
      <path
         d="M 1535.98,210.305 C 1349.93,73.0078 1080.22,0 847.965,0 522.461,0 229.336,120.32 7.52344,320.605 -9.89453,336.336 5.64063,357.813 26.5742,345.633 265.895,206.379 561.844,122.512 867.508,122.512 c 206.192,0 432.852,42.793 641.422,131.258 31.45,13.339 57.82,-20.723 27.05,-43.465"
         style="fill:#ffffff;fill-opacity:1;fill-rule:evenodd;stroke:none"
         id="path14" />
      <path
         d="m 1613.39,298.691 c -23.8,30.457 -157.29,14.434 -217.27,7.247 -18.16,-2.18 -20.98,13.699 -4.61,25.195 106.51,74.793 281,53.203 301.27,28.152 20.43,-25.254 -5.37,-200.203 -105.15,-283.6873 -15.36,-12.8321 -29.97,-5.9883 -23.15,10.9648 22.46,56.0855 72.74,181.6405 48.91,212.1285"
         style="fill:#ffffff;fill-opacity:1;fill-rule:evenodd;stroke:none"
         id="path16" />
    </g>
  </g>
</svg>
