<?xml version="1.0" encoding="UTF-8" standalone="no"?>
<!-- Created with Inkscape (http://www.inkscape.org/) -->

<svg
   width="120mm"
   height="119.99999mm"
   viewBox="0 0 120 119.99999"
   version="1.1"
   id="svg5"
   xml:space="preserve"
   xmlns:inkscape="http://www.inkscape.org/namespaces/inkscape"
   xmlns:sodipodi="http://sodipodi.sourceforge.net/DTD/sodipodi-0.dtd"
   xmlns="http://www.w3.org/2000/svg"
   xmlns:svg="http://www.w3.org/2000/svg"><sodipodi:namedview
     id="namedview7"
     pagecolor="#ffffff"
     bordercolor="#666666"
     borderopacity="1.0"
     inkscape:showpageshadow="2"
     inkscape:pageopacity="0.0"
     inkscape:pagecheckerboard="0"
     inkscape:deskcolor="#d1d1d1"
     inkscape:document-units="mm"
     showgrid="false" /><defs
     id="defs2" /><g
     inkscape:label="Layer 1"
     inkscape:groupmode="layer"
     id="layer1"
     transform="matrix(0.97723203,0,0,0.88582678,136.72318,-92.706257)"><g
       style="opacity:1"
       id="g1066"
       transform="matrix(0.26458333,0,0,0.26458333,-146.24406,104.65507)"
       inkscape:label="g1066"><path
         class="st0"
         d="m 487.753,174.494 -0.267,-1.408 -0.574,-1.319 c -0.777,-1.812 -1.951,-4.919 -3.44,-8.634 -4.077,-10.066 -10.575,-24.865 -22.616,-38.329 0.017,-0.688 0.041,-1.36 0.041,-2.08 C 460.905,88.877 447.149,58.112 424.963,35.942 402.792,13.755 372.021,-0.008 338.173,0 c -33.847,-0.008 -64.61,13.755 -86.782,35.942 -22.179,22.171 -35.951,52.935 -35.943,86.782 -0.008,11.198 1.319,20.908 3.148,29.898 1.836,8.998 4.102,17.259 6.157,26.176 0.745,3.26 1.675,6.084 2.589,8.529 -24.258,-2.363 -46.275,-3.528 -66.084,-3.528 -21.434,0 -40.295,1.343 -56.737,4.03 -12.332,2.015 -23.312,4.782 -33.006,8.382 -14.492,5.406 -26.297,12.72 -34.729,22.6 -4.192,4.928 -7.469,10.486 -9.629,16.458 -2.168,5.972 -3.22,12.315 -3.212,18.756 0.008,11.069 2.978,22.348 8.221,33.846 5.252,11.506 12.816,23.312 22.567,35.603 6.821,8.585 11.782,14.929 15.998,21.167 4.231,6.255 7.848,12.502 12.153,21.459 13.464,28.029 32.342,52.466 56.592,70.016 14.8,10.738 31.646,18.789 50.168,23.417 L 164.609,512 h 75.77 v -23.012 h -39.284 l 12.178,-25.521 c 4.491,0.38 9.046,0.599 13.683,0.591 24.703,0.008 48.152,-5.478 69.215,-15.237 l 31.751,49.893 62.022,-21.88 -7.655,-21.702 -44.77,15.795 -21.159,-33.232 c 9.839,-6.36 18.982,-13.707 27.204,-21.936 29.834,-29.802 48.315,-71.117 48.315,-116.608 h -0.008 c 0.056,-1.156 0.097,-2.313 0.097,-3.495 -0.024,-8.229 -1.068,-17.559 -2.056,-26.978 -0.987,-9.369 -1.918,-18.756 -1.909,-25.828 -0.016,-3.706 0.299,-6.684 0.655,-8.31 17.478,-7.905 32.69,-19.752 44.616,-34.397 11.758,-0.372 22.001,-1.246 30.279,-2.768 2.452,-0.461 4.75,-0.97 6.935,-1.593 3.293,-0.971 6.286,-2.015 9.564,-4.151 1.634,-1.109 3.398,-2.533 5.041,-4.839 0.808,-1.149 1.569,-2.54 2.104,-4.126 0.55,-1.587 0.865,-3.367 0.858,-5.122 -0.002,-1.068 -0.115,-2.095 -0.302,-3.05 z m -40.344,-2.047 c -6.053,0.55 -13.173,0.898 -21.006,1.003 l -6.716,0.097 -3.949,5.437 c -10.22,14.072 -24.112,25.262 -40.247,32.099 -3.803,1.586 -6.821,4.394 -8.714,7.161 -1.465,2.104 -2.428,4.216 -3.156,6.263 -1.076,3.082 -1.635,6.068 -1.99,9.094 -0.34,3.027 -0.47,6.101 -0.47,9.249 0.016,9.184 1.06,19.169 2.056,28.628 0.995,9.402 1.918,18.36 1.902,24.178 0,1.011 -0.025,1.917 -0.073,2.678 l -0.016,0.413 v 0.404 c -0.008,38.16 -15.439,72.598 -40.45,97.625 -25.027,25.003 -59.457,40.434 -97.624,40.434 -28.095,-0.032 -51.722,-8.416 -71.748,-22.851 -19.97,-14.434 -36.25,-35.166 -48.129,-59.885 -0.68,-1.424 -1.36,-2.718 -2.023,-4.054 12.566,4.224 24.032,7.112 34.204,9.006 17.372,3.245 31.087,3.714 40.215,3.714 3.641,0 6.562,-0.064 8.496,-0.064 5.292,0 9.588,-4.297 9.588,-9.597 0,-5.3 -4.297,-9.588 -9.588,-9.588 -2.339,0 -5.098,0.073 -8.496,0.073 -8.447,0 -20.755,-0.421 -36.704,-3.39 -14.953,-2.792 -33.126,-7.89 -54.076,-17.025 -3.819,-5.228 -7.994,-10.527 -12.938,-16.766 -8.731,-10.996 -15.107,-21.127 -19.169,-30.043 -4.078,-8.934 -5.809,-16.572 -5.793,-22.713 0.049,-6.401 1.635,-11.272 5.041,-16.046 2.598,-3.552 6.417,-7.08 11.911,-10.406 8.189,-4.976 20.124,-9.338 35.756,-12.308 15.634,-2.994 34.915,-4.628 57.757,-4.628 20.497,0 43.841,1.311 70.049,4.063 l 2.032,0.21 2.006,-0.397 c 2.5,-0.501 4.758,-1.051 6.91,-1.756 1.635,-0.534 3.229,-1.158 4.855,-2.015 1.222,-0.63 2.468,-1.416 3.714,-2.435 1.861,-1.497 3.722,-3.657 4.92,-6.231 1.23,-2.564 1.698,-5.332 1.674,-7.59 -0.032,-3.326 -0.752,-5.656 -1.376,-7.582 -0.987,-2.848 -1.998,-4.984 -2.881,-7.209 -0.89,-2.209 -1.674,-4.426 -2.257,-6.935 -2.209,-9.564 -4.418,-17.655 -5.996,-25.48 -1.586,-7.832 -2.605,-15.414 -2.613,-24.557 0.008,-26.524 10.714,-50.395 28.078,-67.792 17.397,-17.372 41.283,-28.077 67.799,-28.085 26.516,0.008 50.41,10.713 67.799,28.085 17.373,17.397 28.078,41.267 28.086,67.792 0,1.966 -0.105,4.053 -0.251,6.303 l -0.38,6.142 4.402,4.305 c 6.975,6.805 12.081,14.961 15.892,22.68 1.538,3.14 2.824,6.125 3.997,8.974 -2.873,0.5 -6.337,0.962 -10.31,1.318 z"
         style="opacity:1;fill:#ff9900"
         id="path1051"
         transform="translate(-4.8818898e-6)" /><path
         class="st0"
         d="m 361.825,110.579 c -8.472,0 -15.334,6.87 -15.334,15.349 0,8.464 6.862,15.342 15.334,15.342 8.472,0 15.342,-6.878 15.342,-15.342 0,-8.479 -6.87,-15.349 -15.342,-15.349 z"
         style="opacity:1;fill:#ff9900"
         id="path1053"
         transform="translate(-4.8818898e-6)"
         inkscape:label="path1053" /><path
         style="opacity:0.999;fill:#ffffff;fill-rule:evenodd;stroke:#ffffff;stroke-width:1.00157;stroke-linecap:round;stroke-linejoin:round"
         d="m -217.1543,422.74609 c -38.01551,0.29277 -73.72048,26.12156 -86.84464,61.63988 -7.77354,18.13134 -6.64786,38.39139 -3.96395,57.47536 2.68059,15.13977 7.48637,29.76448 12.07422,44.36914 3.18348,12.76171 -9.84402,23.34886 -21.78516,23.4043 -15.90514,0.61725 -31.76903,-2.87923 -47.76134,-2.75304 -36.11624,-1.16227 -73.478,-1.44947 -107.95545,10.82921 -13.88262,4.9368 -28.72005,15.97279 -28.4043,32.21289 1.19135,22.761 16.88852,41.11327 29.74056,58.68126 4.37791,6.7363 10.28,12.51546 18.25358,14.60585 26.79528,10.5953 55.49146,16.39188 84.30273,16.42187 5.44421,0.0361 13.5362,0.76626 14.04883,7.8418 1.81117,8.16906 -7.92524,12.11281 -14.55859,11.52148 -25.77523,-0.008 -51.21042,-5.06032 -75.91797,-11.96875 -1.09209,3.02178 2.88204,6.50102 3.74609,9.45118 11.70993,22.17722 28.5557,41.78357 49.0586,56.24609 24.23483,15.95201 54.16399,22.91568 82.93228,18.81598 52.3538,-4.9985 99.07163,-43.47529 115.33149,-93.29836 11.67337,-32.29936 4.88527,-67.10049 3.33388,-100.38676 0.16487,-11.81865 2.74342,-26.20051 14.70313,-31.62305 17.87342,-7.48526 32.55758,-21.23129 43.71093,-36.93554 12.52386,-0.79005 25.18304,-0.47205 37.58985,-2.54883 -3.53382,-10.36737 -9.88233,-20.94521 -17.33789,-29.57422 -3.91655,-3.72486 -7.53204,-7.48881 -6.17066,-13.3754 0.16824,-15.38196 -1.34252,-31.05584 -8.30909,-45.02044 -14.83233,-32.06447 -48.08234,-55.78286 -83.88697,-55.99015 -1.97572,-0.0737 -3.95358,-0.0749 -5.93016,-0.0418 z M -191,506.20703 c 8.43933,-0.0291 16.32198,7.60508 14.76172,16.3125 0.70219,12.17163 -16.57167,19.14189 -24.76953,10.29883 -9.30823,-7.50364 -4.65931,-23.86021 6.71093,-26.24024 1.07853,-0.25722 2.18785,-0.38582 3.29688,-0.37109 z"
         id="path1725"
         transform="translate(552.73346,-395.54673)" /></g></g><style
     type="text/css"
     id="style1049">
	.st0{fill:#4B4B4B;}
</style></svg>
